<?xml version="1.0" encoding="UTF-8" standalone="no"?>
<!-- Generator: Adobe Illustrator 16.0.0, SVG Export Plug-In . SVG Version: 6.00 Build 0)  -->

<svg
   xmlns:dc="http://purl.org/dc/elements/1.1/"
   xmlns:cc="http://creativecommons.org/ns#"
   xmlns:rdf="http://www.w3.org/1999/02/22-rdf-syntax-ns#"
   xmlns:svg="http://www.w3.org/2000/svg"
   xmlns="http://www.w3.org/2000/svg"
   xmlns:sodipodi="http://sodipodi.sourceforge.net/DTD/sodipodi-0.dtd"
   xmlns:inkscape="http://www.inkscape.org/namespaces/inkscape"
   version="1.1"
   id="Capa_1"
   x="0px"
   y="0px"
   width="578.713px"
   height="578.713px"
   viewBox="0 0 650 650"
   style="enable-background:new 0 0 578.713 578.713; fill:white"
   xml:space="preserve"
   sodipodi:docname="share2.svg"
   inkscape:version="0.92.1 r"><metadata
     id="metadata4787"><rdf:RDF><cc:Work
         rdf:about=""><dc:format>image/svg+xml</dc:format><dc:type
           rdf:resource="http://purl.org/dc/dcmitype/StillImage" /><dc:title></dc:title></cc:Work></rdf:RDF></metadata><defs
     id="defs4785" /><sodipodi:namedview
     pagecolor="#ffffff"
     bordercolor="#666666"
     borderopacity="1"
     objecttolerance="10"
     gridtolerance="10"
     guidetolerance="10"
     inkscape:pageopacity="0"
     inkscape:pageshadow="2"
     inkscape:window-width="1920"
     inkscape:window-height="1025"
     id="namedview4783"
     showgrid="false"
     inkscape:zoom="0.40780144"
     inkscape:cx="31.878259"
     inkscape:cy="289.35651"
     inkscape:window-x="0"
     inkscape:window-y="27"
     inkscape:window-maximized="1"
     inkscape:current-layer="g4748" /><g
     id="g4750"
     transform="scale(0.9279938,0.79298216)"><g
       id="g4748"
       transform="matrix(3.0174286,0,0,3.0941746,-1178.2753,-729.38568)"><path
         d="m 612,370.54475 c 0,-63.91653 -44.08339,-115.73328 -98.46004,-115.73328 -54.37697,0 -98.46004,51.81675 -98.46004,115.73328 0,63.91617 44.08307,115.73329 98.46004,115.73329 54.37665,0 98.46004,-51.81712 98.46004,-115.73329 z m -187.96922,0 c 0,-58.10869 40.07323,-105.21214 89.50918,-105.21214 49.43595,0 89.50919,47.10345 89.50919,105.21214 0,58.10871 -40.07324,105.21215 -89.50919,105.21215 -49.43595,0 -89.50918,-47.10344 -89.50918,-105.21215 z"
         id="path4742"
         inkscape:connector-curvature="0"
         style="stroke-width:0.34884915" /><path
         d="m 530.97433,337.57225 c 2.11216,2.18726 4.57398,3.90614 7.31801,5.10811 2.84684,1.24705 5.86418,1.8794 8.96881,1.8794 3.10463,0 6.12248,-0.63235 8.96906,-1.8794 2.74378,-1.20223 5.20611,-2.92085 7.31776,-5.10811 2.11191,-2.18755 3.77085,-4.73778 4.93152,-7.58008 1.20394,-2.94852 1.81469,-6.07417 1.81469,-9.28998 0,-3.21554 -0.6105,-6.34146 -1.81443,-9.28998 -1.16093,-2.8423 -2.81987,-5.39253 -4.93178,-7.58007 -2.11191,-2.18753 -4.57373,-3.90588 -7.31776,-5.10812 -2.84684,-1.24704 -5.86443,-1.87939 -8.96906,-1.87939 -3.10463,0 -6.12222,0.63235 -8.96881,1.87939 -2.74403,1.20224 -5.2061,2.92085 -7.31776,5.10812 -2.11217,2.18754 -3.7711,4.73777 -4.93203,7.58007 -1.20368,2.94852 -1.81417,6.07418 -1.81417,9.28998 0,2.27347 0.30639,4.50133 0.91077,6.65381 l -50.44357,30.02032 c -0.33922,-0.40119 -0.69116,-0.79236 -1.05761,-1.17219 -2.11191,-2.18754 -4.57373,-3.90615 -7.31776,-5.10838 -2.84659,-1.24705 -5.86418,-1.8794 -8.96906,-1.8794 -3.10489,0 -6.12223,0.63235 -8.96881,1.8794 -2.74404,1.20223 -5.20611,2.92084 -7.31802,5.10838 -2.11191,2.18753 -3.7711,4.73777 -4.93152,7.58007 -1.20393,2.94878 -1.81468,6.07418 -1.81468,9.29024 0,3.21554 0.61049,6.34119 1.81468,9.28998 1.16067,2.8423 2.81987,5.39227 4.93152,7.57981 2.11166,2.18754 4.57398,3.90588 7.31802,5.10864 2.84658,1.24678 5.86392,1.87967 8.96881,1.87967 3.10488,0 6.12247,-0.63262 8.96906,-1.87967 2.74403,-1.20249 5.2061,-2.9211 7.31776,-5.10864 0.37408,-0.38722 0.73315,-0.78656 1.07873,-1.19644 l 50.41304,29.89906 c -0.59802,2.1422 -0.90111,4.35847 -0.90111,6.62007 0,3.21607 0.61024,6.34172 1.81443,9.28998 1.16067,2.8423 2.81961,5.39227 4.93152,7.57981 2.11217,2.18753 4.57398,3.90641 7.31802,5.10865 2.84684,1.24678 5.86418,1.87913 8.9688,1.87913 3.10463,0 6.12248,-0.63209 8.96907,-1.87913 2.74377,-1.20224 5.2061,-2.92112 7.31776,-5.10865 2.11191,-2.18754 3.77085,-4.73751 4.93152,-7.57981 1.20393,-2.94852 1.81468,-6.07444 1.81468,-9.28998 0,-3.21554 -0.61049,-6.34119 -1.81443,-9.28998 -1.16092,-2.84229 -2.81986,-5.39279 -4.93177,-7.5798 -2.11191,-2.18754 -4.57399,-3.90589 -7.31776,-5.10864 -2.84684,-1.24679 -5.86444,-1.87914 -8.96907,-1.87914 -3.10462,0 -6.12222,0.63209 -8.9688,1.87914 -2.74404,1.20249 -5.20611,2.9211 -7.31802,5.10864 -0.14378,0.14867 -0.28501,0.30022 -0.42472,0.45206 L 479.735,378.71159 c 0.43058,-1.83486 0.64943,-3.71953 0.64943,-5.63741 0,-1.92843 -0.2214,-3.82417 -0.65681,-5.6693 l 50.84565,-30.25939 c 0.13182,0.14392 0.26542,0.286 0.40106,0.42676 z m 9.59126,77.21722 c 1.91927,-1.31901 4.22051,-2.08869 6.69581,-2.08869 6.69989,0 12.13146,5.62607 12.13146,12.56588 0,6.93981 -5.43157,12.56588 -12.13146,12.56588 -6.69988,0 -12.1312,-5.62607 -12.1312,-12.56588 0,-0.22748 0.006,-0.45364 0.0181,-0.67795 0.21045,-4.09383 2.31243,-7.66627 5.41732,-9.79924 z M 457.3514,385.63954 c -6.69989,0 -12.1312,-5.62555 -12.1312,-12.56536 0,-6.94007 5.43131,-12.56562 12.1312,-12.56562 2.84303,0 5.45549,1.01562 7.52363,2.71235 2.80562,2.3014 4.60758,5.85829 4.60758,9.85353 0,3.98891 -1.79687,7.54159 -4.59562,9.84352 -2.07017,1.70226 -4.68722,2.72158 -7.53559,2.72158 z m 77.7788,-64.93735 c 0,-6.9398 5.43132,-12.56562 12.1312,-12.56562 6.69989,0 12.13121,5.62582 12.13121,12.56562 0,6.93981 -5.43132,12.56562 -12.13121,12.56562 -2.46919,0 -4.76458,-0.76599 -6.68054,-2.07841 -3.10845,-2.12875 -5.21527,-5.69829 -5.43132,-9.79107 -0.012,-0.23037 -0.0193,-0.4626 -0.0193,-0.69614 z"
         id="path4744"
         inkscape:connector-curvature="0"
         style="stroke-width:0.25899395" /></g></g><g
     id="g4752" /><g
     id="g4754" /><g
     id="g4756" /><g
     id="g4758" /><g
     id="g4760" /><g
     id="g4762" /><g
     id="g4764" /><g
     id="g4766" /><g
     id="g4768" /><g
     id="g4770" /><g
     id="g4772" /><g
     id="g4774" /><g
     id="g4776" /><g
     id="g4778" /><g
     id="g4780" /></svg>