<?xml version="1.0" encoding="iso-8859-1"?>
<!-- Generator: Adobe Illustrator 16.0.0, SVG Export Plug-In . SVG Version: 6.00 Build 0)  -->
<!DOCTYPE svg PUBLIC "-//W3C//DTD SVG 1.1//EN" "http://www.w3.org/Graphics/SVG/1.1/DTD/svg11.dtd">
<svg version="1.1" id="Capa_1" xmlns="http://www.w3.org/2000/svg" xmlns:xlink="http://www.w3.org/1999/xlink" x="0px" y="0px"
	 width="616px" height="616px" viewBox="0 0 616 616" style="enable-background:new 0 0 616 616;" xml:space="preserve">
<!--<defs>
	<style type="text/css">
		.vine
			{
				height:10px;
				width:10px;
				fill:white;
			}
	</style>
</defs>-->
	<g>

		<path class="circle" d="M612,306C612,137.004,474.995,0,306,0C137.004,0,0,137.004,0,306c0,168.995,137.004,306,306,306
			C474.995,612,612,474.995,612,306z M27.818,306C27.818,152.36,152.36,27.818,306,27.818S584.182,152.36,584.182,306
			S459.64,584.182,306,584.182S27.818,459.64,27.818,306z"/>
	<path class="vine" d="M578.018,306.236c-15.868,3.658-31.218,5.272-45.035,5.272c-77.721,0-137.56-54.281-137.56-148.663
		c0-46.262,17.887-70.318,43.178-70.318c24.062,0,40.104,21.588,40.104,65.386c0,24.902-6.67,52.194-11.595,68.34
		c0,0,23.951,41.78,89.442,28.958c13.907-30.873,21.466-70.857,21.466-105.931C578.018,54.899,529.9,0,441.688,0
		c-90.672,0-143.724,69.706-143.724,161.618c0,91.054,42.564,169.21,112.752,204.822c-29.514,59.039-67.068,111.044-106.235,150.229
		c-71.062-85.902-135.302-200.504-161.662-424.141H37.982c48.437,372.464,192.781,491.06,230.946,513.833
		c21.591,12.954,40.177,12.338,59.919,1.231c30.989-17.623,124.038-110.654,175.611-219.627c21.648-0.058,47.658-2.545,73.559-8.397
		V306.236L578.018,306.236z"/>
</g>
<g>
</g>
<g>
</g>
<g>
</g>
<g>
</g>
<g>
</g>
<g>
</g>
<g>
</g>
<g>
</g>
<g>
</g>
<g>
</g>
<g>
</g>
<g>
</g>
<g>
</g>
<g>
</g>
<g>
</g>
</svg>
