<?xml version="1.0" encoding="iso-8859-1"?>
<!-- Generator: Adobe Illustrator 19.1.0, SVG Export Plug-In . SVG Version: 6.00 Build 0)  -->
<svg version="1.1" id="Capa_1" xmlns="http://www.w3.org/2000/svg" xmlns:xlink="http://www.w3.org/1999/xlink" x="0px" y="0px"
	 viewBox="0 0 48 48" style="enable-background:new 0 0 48 48; stroke-width:2px;stroke:black;" xml:space="preserve">
<g id="calendar">
	<g>
		<path d="M33,35h-4v4h4V35z M26,21h-4v4h4V21z M33,28h-4v4h4V28z M33,21h-4v4h4V21z M40,21h-4v4h4V21z M40,28h-4v4h4V28z M26,28h-4
			v4h4V28z M19,21h-4v4h4V21z M12,28H8v4h4V28z M19,35h-4v4h4V35z M12,35H8v4h4V35z M19,28h-4v4h4V28z M26,35h-4v4h4V35z M39,4V0h-2
			v4H11V0H9v4H0v44h48V4H39z M46,46H2V16h44V46z M46,14H2V6h7v2h2V6h26v2h2V6h7V14z"/>
	</g>
</g>

</svg>
